<?xml version="1.0" encoding="UTF-8"?>
<!-- Generator: visioncortex VTracer 0.6.4 -->
<svg version="1.1" xmlns="http://www.w3.org/2000/svg" width="640" height="640">
<path d="M0 0 C211.2 0 422.4 0 640 0 C640 211.2 640 422.4 640 640 C428.8 640 217.6 640 0 640 C0 428.8 0 217.6 0 0 Z " fill="#FEFEFE" transform="translate(0,0)"/>
<path d="M0 0 C2.81 -0.01 5.62 -0.06 8.44 -0.12 C17.99 -0.21 25.3 0.05 33.61 5.17 C35.79 6.5 37.35 7.28 39.89 7.56 C41.59 6.27 43.25 4.93 44.89 3.56 C50.29 0.76 54.65 0.04 60.7 0.12 C61.49 0.13 62.29 0.14 63.11 0.15 C73.44 0.46 79.55 3.56 86.88 10.85 C92.96 19.05 93.44 26.54 93.28 36.56 C93.27 37.88 93.26 39.2 93.26 40.56 C93.24 44.03 93.2 47.51 93.16 50.99 C93.12 54.55 93.1 58.11 93.08 61.67 C93.04 68.63 92.97 75.59 92.89 82.56 C93.83 82.7 94.78 82.84 95.75 82.99 C101.37 84.01 105.21 87.43 108.69 91.85 C114.61 100.54 115.26 109.84 113.42 120.14 C110.87 127.75 105.35 132.64 98.72 136.71 C96.89 137.56 96.89 137.56 93.89 137.56 C93.85 138.74 93.85 138.74 93.81 139.94 C92.87 157.88 86.53 172.82 73.89 185.56 C72.55 186.95 72.55 186.95 71.2 188.37 C68.89 190.56 68.89 190.56 65.64 192.68 C61.64 196.86 61.9 200.96 61.89 206.56 C63 206.52 63 206.52 64.14 206.49 C85.97 206.91 108.99 217.93 124.89 232.56 C125.4 233.03 125.92 233.5 126.45 233.98 C144.27 250.32 157.01 272.27 159.89 296.56 C159.96 299.2 160 301.82 159.98 304.46 C159.98 305.54 159.98 305.54 159.98 306.65 C159.97 308.93 159.96 311.21 159.95 313.49 C159.94 315.05 159.94 316.61 159.93 318.17 C159.92 321.96 159.9 325.76 159.89 329.56 C154.28 329.56 148.67 329.56 142.89 329.56 C142.86 327.42 142.83 325.28 142.81 323.08 C142.77 320.96 142.72 318.83 142.68 316.71 C142.65 315.26 142.63 313.81 142.61 312.36 C142.36 288.18 133.92 266.96 116.94 249.45 C105.19 237.94 90.64 230.78 74.89 226.56 C74.07 226.33 73.26 226.1 72.42 225.87 C66.99 224.49 61.43 223.5 55.89 224.56 C52.63 226.59 50.24 229.2 47.7 232.06 C47.04 232.75 46.38 233.45 45.7 234.17 C41.83 238.28 38.14 242.54 34.44 246.8 C32.57 248.91 30.63 250.94 28.64 252.93 C27.99 253.58 27.35 254.23 26.68 254.89 C24.06 257.32 22.25 258.49 18.7 259.12 C10.57 257.92 5.5 250.12 0.14 244.37 C-0.47 243.72 -1.08 243.08 -1.7 242.42 C-4.61 239.31 -7.44 236.19 -10.12 232.88 C-13.86 228.43 -16.88 224.97 -22.86 223.86 C-27.06 223.83 -31.04 224.58 -35.11 225.56 C-35.79 225.71 -36.46 225.86 -37.15 226.02 C-51.9 229.55 -64.7 236.66 -76.11 246.56 C-77.13 247.32 -78.14 248.08 -79.18 248.87 C-91.94 260.55 -99.16 274.95 -103.11 291.56 C-103.45 292.64 -103.79 293.73 -104.14 294.85 C-105.71 301.17 -105.47 307.65 -105.53 314.12 C-105.55 315.52 -105.57 316.92 -105.59 318.32 C-105.64 321.98 -105.68 325.65 -105.72 329.31 C-105.76 333.06 -105.81 336.8 -105.86 340.55 C-105.95 347.89 -106.03 355.22 -106.11 362.56 C-94.89 362.56 -83.67 362.56 -72.11 362.56 C-72.17 357.99 -72.23 353.43 -72.29 348.73 C-72.32 345.84 -72.34 342.94 -72.36 340.05 C-72.39 335.46 -72.42 330.87 -72.49 326.28 C-72.55 322.57 -72.58 318.87 -72.59 315.17 C-72.6 313.76 -72.62 312.35 -72.64 310.94 C-72.68 308.96 -72.68 306.98 -72.68 305 C-72.7 303.31 -72.7 303.31 -72.72 301.59 C-71.92 297.56 -70.31 296.06 -67.11 293.56 C-63.3 293.24 -63.3 293.24 -60.11 293.56 C-60.11 294.22 -60.11 294.88 -60.11 295.56 C-59.48 295.87 -58.84 296.17 -58.18 296.49 C-56.11 297.56 -56.11 297.56 -55.11 298.56 C-55.02 300.52 -55 302.49 -55 304.45 C-55 306.34 -55 306.34 -55 308.27 C-55.01 309.66 -55.01 311.05 -55.02 312.43 C-55.02 313.85 -55.02 315.26 -55.02 316.67 C-55.03 320.39 -55.04 324.11 -55.05 327.83 C-55.06 331.62 -55.06 335.42 -55.07 339.21 C-55.08 346.66 -55.09 354.11 -55.11 361.56 C-40.65 361.75 -26.19 361.87 -11.72 361.89 C-5 361.9 1.71 361.94 8.43 362.04 C14.91 362.13 21.4 362.16 27.88 362.14 C30.35 362.14 32.83 362.17 35.3 362.22 C47.54 363.1 47.54 363.1 58.66 359.2 C61.85 355.43 63.2 351.16 64.89 346.56 C68.96 340.31 74.36 334.54 79.89 329.56 C80.55 329.56 81.21 329.56 81.89 329.56 C81.89 328.9 81.89 328.24 81.89 327.56 C83.56 326.05 83.56 326.05 85.76 324.43 C86.48 323.89 87.2 323.35 87.94 322.8 C89.89 321.56 89.89 321.56 91.89 321.56 C91.86 320.89 91.83 320.21 91.81 319.52 C91.7 316.47 91.64 313.42 91.57 310.37 C91.51 308.79 91.51 308.79 91.45 307.17 C91.32 299.35 91.32 299.35 94.17 295.34 C97.6 293.08 99.85 293.16 103.89 293.56 C103.89 294.22 103.89 294.88 103.89 295.56 C104.52 295.87 105.16 296.17 105.82 296.49 C107.89 297.56 107.89 297.56 108.89 298.56 C109.28 304.57 109.37 310.59 109.45 316.62 C109.49 318.65 109.55 320.68 109.62 322.71 C110.22 339.58 110.22 339.58 107.03 344.3 C104.73 346.07 102.5 347.31 99.89 348.56 C91.05 355.73 84.82 364.63 79.79 374.73 C79.43 375.45 79.07 376.17 78.71 376.9 C78.44 377.45 78.16 377.99 77.89 378.56 C52.27 378.65 26.65 378.72 1.04 378.76 C-10.86 378.78 -22.75 378.81 -34.65 378.86 C-45.01 378.9 -55.37 378.92 -65.74 378.93 C-71.23 378.94 -76.72 378.95 -82.21 378.98 C-87.37 379.01 -92.54 379.01 -97.7 379.01 C-99.6 379.01 -101.5 379.02 -103.4 379.03 C-105.98 379.05 -108.57 379.05 -111.16 379.04 C-111.91 379.05 -112.66 379.06 -113.44 379.07 C-116.89 379.03 -118.78 378.8 -121.58 376.72 C-123.75 373.65 -123.62 371.42 -123.62 367.69 C-123.62 367 -123.63 366.32 -123.63 365.61 C-123.65 363.35 -123.63 361.09 -123.61 358.83 C-123.61 357.24 -123.61 355.65 -123.62 354.07 C-123.62 350.73 -123.6 347.39 -123.58 344.05 C-123.55 339.83 -123.56 335.61 -123.57 331.38 C-123.58 328.09 -123.57 324.81 -123.56 321.52 C-123.55 319.96 -123.55 318.41 -123.55 316.86 C-123.57 302.22 -122.3 287.35 -116.86 273.62 C-116.56 272.83 -116.26 272.04 -115.95 271.23 C-113.4 264.81 -110.24 259.1 -106.11 253.56 C-105.28 252.41 -105.28 252.41 -104.44 251.25 C-88.68 230.3 -66.5 212.49 -39.89 208.2 C-34.98 207.52 -30.05 207.01 -25.11 206.56 C-24.8 202.66 -24.97 199.31 -26.11 195.56 C-28.58 192.93 -31.23 190.97 -34.13 188.85 C-47.64 178.47 -54.33 161.91 -57.11 145.56 C-57.17 143.22 -57.19 140.89 -57.11 138.56 C-57.85 138.45 -58.58 138.35 -59.33 138.25 C-65.5 136.71 -70.59 131.82 -74.05 126.62 C-78.16 119.24 -79.74 110.44 -77.46 102.2 C-74.25 94.2 -68.63 87.75 -61.11 83.56 C-60.45 83.56 -59.79 83.56 -59.11 83.56 C-59.11 82.9 -59.11 82.24 -59.11 81.56 C-60.1 81.25 -60.1 81.25 -61.11 80.93 C-73.38 75.31 -81.92 63.83 -89.93 53.4 C-91.44 51.41 -91.44 51.41 -93.11 49.56 C-93.68 43.93 -93.68 43.93 -93.11 41.56 C-90.95 39.11 -90.95 39.11 -88.11 36.56 C-87.19 35.72 -86.27 34.88 -85.32 34.02 C-78.29 28 -72.2 23.84 -63.17 21.53 C-54.39 19.25 -48.46 16.94 -41.59 10.7 C-29.87 0.52 -14.73 -0 0 0 Z " fill="#082C76" transform="translate(266.114990234375,73.444091796875)"/>
<path d="M0 0 C5.09 0.03 7.78 3.17 11.21 6.63 C12.66 8.13 14.09 9.65 15.52 11.18 C16.48 12.17 17.44 13.16 18.41 14.15 C23.11 19 27.67 23.96 32.06 29.09 C35.04 32.49 37.23 34.36 41.64 35.49 C51.97 33.29 60.58 20.35 67.52 12.86 C68.83 11.46 70.14 10.07 71.45 8.68 C72.15 7.92 72.85 7.17 73.57 6.4 C74.27 5.67 74.96 4.95 75.68 4.2 C76.3 3.54 76.92 2.89 77.56 2.21 C80.42 -0.11 82.71 -0.23 86.3 0.09 C114.62 5.38 137.32 18.2 154.06 41.96 C158.79 49.25 161.87 57.41 164.45 65.68 C164.65 66.31 164.86 66.94 165.06 67.59 C167.15 75.31 166.67 83.32 166.58 91.24 C166.57 92.74 166.56 94.24 166.55 95.74 C166.53 99.39 166.49 103.03 166.45 106.68 C172.06 106.68 177.67 106.68 183.45 106.68 C183.45 100.08 183.45 93.48 183.45 86.68 C183.78 86.68 184.11 86.68 184.45 86.68 C184.45 93.28 184.45 99.88 184.45 106.68 C186.76 106.68 189.07 106.68 191.45 106.68 C205.37 110.3 218.8 117.04 229.45 126.68 C230.21 127.34 230.97 128.01 231.75 128.69 C244.38 140.45 253.53 157.28 254.64 174.63 C254.72 177.77 254.73 180.91 254.7 184.05 C254.71 185.1 254.72 186.14 254.73 187.22 C254.67 208.22 247.33 225.83 232.98 241.25 C228.5 245.54 223.54 249.14 218.45 252.68 C217.49 253.36 216.53 254.04 215.54 254.74 C212.2 256.83 208.92 258.33 205.27 259.8 C204.06 260.3 202.84 260.8 201.6 261.31 C192.73 264.48 183.73 265 174.39 264.93 C173.38 264.93 172.37 264.94 171.33 264.95 C150.83 264.9 132.93 256 118.43 241.78 C104.05 227.11 95.56 207.04 95.08 186.55 C95.45 176.68 95.45 176.68 100.45 156.68 C36.1 156.68 -28.25 156.68 -94.55 156.68 C-94.55 156.35 -94.55 156.02 -94.55 155.68 C2.47 155.18 2.47 155.18 101.45 154.68 C103.43 150.72 105.41 146.76 107.45 142.68 C111.37 137.04 115.78 132.18 120.58 127.3 C121.08 126.79 121.58 126.28 122.1 125.75 C124.35 123.52 126.13 121.81 129.09 120.61 C131.59 118.96 131.59 118.96 131.92 116.77 C132.1 114.19 132.12 111.66 132.08 109.08 C132.09 107.67 132.09 107.67 132.09 106.22 C132.09 104.23 132.07 102.24 132.05 100.24 C132.02 97.19 132.03 94.13 132.05 91.08 C132.04 89.14 132.03 87.21 132.02 85.27 C132.02 84.35 132.03 83.44 132.03 82.49 C132.12 77.55 132.12 77.55 129.42 73.7 C128.77 73.36 128.12 73.02 127.45 72.68 C127.45 72.02 127.45 71.36 127.45 70.68 C122.49 71.03 122.49 71.03 118.24 73.4 C116.07 76.17 116.01 77.42 116.12 80.89 C116.13 81.88 116.13 82.88 116.14 83.91 C116.18 86 116.24 88.08 116.32 90.17 C116.31 97.67 116.31 97.67 113.69 100.74 C108.58 104.68 108.58 104.68 105.45 104.68 C105.45 105.34 105.45 106 105.45 106.68 C104.35 107.68 103.19 108.63 102.02 109.55 C97.66 113.27 94.34 117.44 90.92 122.03 C90.53 122.55 90.13 123.07 89.72 123.61 C88.3 125.77 88.3 125.77 87.35 128.83 C85.63 132.92 84.12 136.07 80.45 138.68 C72.44 141.17 63.44 140.18 55.17 139.95 C52.67 139.92 50.17 139.9 47.67 139.89 C41.78 139.85 35.89 139.74 29.99 139.61 C22.62 139.45 15.25 139.38 7.88 139.31 C-5.27 139.17 -18.41 138.95 -31.55 138.68 C-31.55 137.5 -31.55 137.5 -31.56 136.3 C-31.6 128.93 -31.65 121.56 -31.73 114.19 C-31.77 110.4 -31.8 106.61 -31.82 102.82 C-31.83 99.16 -31.87 95.5 -31.92 91.85 C-31.93 90.45 -31.94 89.06 -31.94 87.66 C-31.94 85.71 -31.97 83.75 -32 81.8 C-32.01 80.69 -32.02 79.57 -32.03 78.43 C-32.28 75.54 -32.28 75.54 -34.58 73.92 C-35.55 73.3 -35.55 73.3 -36.55 72.68 C-36.55 72.02 -36.55 71.36 -36.55 70.68 C-41.48 71.03 -41.48 71.03 -45.75 73.33 C-48.09 76.38 -48.06 78.18 -48.09 82 C-48.11 83.29 -48.13 84.57 -48.15 85.89 C-48.15 87.28 -48.16 88.67 -48.16 90.07 C-48.17 91.5 -48.19 92.92 -48.21 94.35 C-48.25 98.11 -48.27 101.86 -48.29 105.62 C-48.31 110.13 -48.36 114.64 -48.41 119.14 C-48.48 125.99 -48.51 132.83 -48.55 139.68 C-59.77 139.68 -70.99 139.68 -82.55 139.68 C-82.63 131.73 -82.71 123.78 -82.75 115.83 C-82.77 112.13 -82.8 108.43 -82.85 104.72 C-82.89 101.14 -82.92 97.57 -82.93 93.99 C-82.94 91.98 -82.97 89.98 -83 87.98 C-83 67.99 -75.58 45.32 -61.55 30.68 C-60.89 30.68 -60.23 30.68 -59.55 30.68 C-59.21 29.83 -59.21 29.83 -58.88 28.97 C-51.4 16.05 -30.62 6.91 -16.98 2.99 C-11.33 1.54 -5.71 1.09 0 0 Z " fill="#BA99F3" transform="translate(242.546875,296.32421875)"/>
<path d="M0 0 C0.98 -0.02 1.96 -0.04 2.98 -0.06 C17.64 -0.14 30.79 4.77 41.88 14.25 C42.63 14.84 43.38 15.42 44.16 16.02 C54.58 24.48 62.2 37.67 63.69 51.08 C64.48 60.57 65.06 71.17 61.88 80.25 C61.56 81.18 61.24 82.11 60.91 83.06 C55.62 97.02 46.31 107.92 33.94 116.06 C33.38 116.44 32.82 116.81 32.24 117.19 C24.63 122 17.05 123.72 8.12 124 C7.25 124.03 6.37 124.06 5.47 124.09 C2.94 124.17 0.41 124.21 -2.12 124.25 C-3.32 124.28 -4.52 124.3 -5.75 124.33 C-19.56 123.98 -32.58 116.98 -42.12 107.25 C-54.23 93.86 -60.49 80.01 -60.44 61.88 C-60.45 60.8 -60.47 59.73 -60.49 58.62 C-60.5 41.17 -52.54 28.02 -40.88 15.56 C-36.16 10.96 -31.05 8.05 -25.12 5.25 C-24.29 4.85 -23.46 4.45 -22.6 4.03 C-15 0.49 -8.32 0.04 0 0 Z " fill="#FDFEFE" transform="translate(416.125,419.75)"/>
<path d="M0 0 C38.28 0 76.56 0 116 0 C116.99 2.64 117.98 5.28 119 8 C121.95 10.24 121.95 10.24 125.81 10.81 C130.32 11.85 132.71 13.79 136 17 C137.73 20.45 137.36 24.22 137 28 C135.26 32.21 133.13 34.12 129 36 C127.82 36.14 126.65 36.29 125.44 36.44 C121.38 37.1 120.43 37.75 118 41 C117.48 44.42 117.48 44.42 117.56 48.25 C117.08 64.8 110.8 79.21 98.76 90.68 C86.54 100.96 73.97 104.32 58.38 104.44 C57.33 104.45 56.28 104.46 55.2 104.47 C39.96 104.3 26.48 98.98 15.56 88.25 C3.98 76.28 -0.33 61.56 -0.63 45.18 C-1.03 41.73 -1.45 40.33 -4 38 C-6.32 37.27 -6.32 37.27 -8.88 37.06 C-13.7 36.27 -15.92 34.94 -19 31 C-21.5 27.25 -21.45 25.45 -21 21 C-18.73 16.63 -16.52 14 -12 12 C-10.24 11.78 -10.24 11.78 -8.44 11.56 C-5.01 11.25 -5.01 11.25 -2.62 9.38 C-0.4 6.5 -0.4 6.5 0 0 Z " fill="#FBDEBD" transform="translate(226,160)"/>
<path d="M0 0 C0.33 0 0.66 0 1 0 C1 6.6 1 13.2 1 20 C3.31 20 5.62 20 8 20 C21.92 23.63 35.35 30.36 46 40 C46.76 40.67 47.52 41.33 48.3 42.02 C60.93 53.78 70.08 70.6 71.19 87.95 C71.27 91.1 71.27 94.23 71.25 97.38 C71.26 98.42 71.27 99.47 71.27 100.55 C71.22 121.54 63.87 139.16 49.53 154.58 C45.05 158.87 40.09 162.47 35 166 C34.04 166.68 33.08 167.36 32.09 168.06 C28.75 170.16 25.46 171.66 21.81 173.12 C20.6 173.62 19.39 174.12 18.14 174.63 C9.27 177.8 0.28 178.32 -9.06 178.25 C-10.07 178.26 -11.09 178.27 -12.13 178.27 C-32.62 178.22 -50.52 169.32 -65.02 155.1 C-79.4 140.43 -87.89 120.37 -88.38 99.88 C-88 90 -88 90 -83 70 C-147.35 70 -211.7 70 -278 70 C-278 69.67 -278 69.34 -278 69 C-180.98 68.5 -180.98 68.5 -82 68 C-80.02 64.04 -78.04 60.08 -76 56 C-63.21 37.58 -46.55 25.02 -24.45 20.36 C-19.79 19.68 -15.14 19.79 -10.44 19.88 C-9.43 19.88 -8.42 19.89 -7.38 19.9 C-4.92 19.93 -2.46 19.96 0 20 C0 13.4 0 6.8 0 0 Z M-58 60 C-62.92 66.12 -65.61 72.57 -68 80 C-68.36 80.85 -68.72 81.69 -69.09 82.57 C-70.47 87.77 -70.33 92.89 -70.31 98.25 C-70.33 99.33 -70.34 100.41 -70.36 101.53 C-70.37 118.45 -62.94 132.49 -51.44 144.56 C-39.93 156.01 -26.5 160.85 -10.63 161.04 C-9.09 161.03 -7.54 161.02 -6 161 C-4.69 160.99 -3.38 160.97 -2.03 160.96 C13.4 160.32 27.83 152.4 38.27 141.07 C52.14 124.45 54.99 107.96 53.83 86.95 C51.78 71.06 41.32 57.84 29.19 48.19 C17.3 39.63 4.98 36.64 -9.44 36.69 C-10.9 36.66 -10.9 36.66 -12.38 36.64 C-30.98 36.63 -45.92 46.53 -58 60 Z " fill="#6ACAD0" transform="translate(426,383)"/>
<path d="M0 0 C4.06 2.03 6.58 4.2 9 8 C9.36 10.15 9.36 10.15 9.34 12.49 C9.34 13.37 9.34 14.25 9.34 15.16 C9.32 16.1 9.31 17.05 9.29 18.02 C9.29 18.99 9.28 19.96 9.28 20.96 C9.26 24.06 9.23 27.15 9.19 30.25 C9.17 32.35 9.16 34.45 9.15 36.55 C9.11 41.7 9.06 46.85 9 52 C-6.62 52.09 -22.24 52.16 -37.86 52.21 C-45.12 52.23 -52.37 52.26 -59.62 52.3 C-65.95 52.34 -72.27 52.37 -78.6 52.38 C-81.95 52.38 -85.29 52.4 -88.64 52.42 C-92.38 52.45 -96.13 52.46 -99.87 52.45 C-101.52 52.48 -101.52 52.48 -103.2 52.5 C-115.66 52.43 -123.87 46.98 -132.6 38.46 C-137.35 33.47 -137.35 33.47 -139 31 C-138.61 27.38 -137.92 26.93 -134.96 24.41 C-131.04 21.79 -127.1 20.58 -122.56 19.44 C-112.95 16.79 -106.41 13.71 -98.88 7 C-89.12 0.22 -79.51 0.4 -68 0.53 C-65.18 0.56 -62.35 0.55 -59.53 0.54 C-57.72 0.55 -55.91 0.56 -54.11 0.57 C-53.27 0.56 -52.43 0.56 -51.56 0.56 C-46.89 0.63 -43.81 1 -40 4 C-37.06 7.71 -36.36 11.45 -35.62 16.01 C-35.11 18.38 -35.11 18.38 -32 20 C-28.19 20.42 -25.91 20.57 -22.62 18.5 C-20.76 15.63 -20.66 13.39 -20.4 10.03 C-19.68 6.37 -17.64 4.58 -15 2 C-10.33 -0.91 -5.32 -0.63 0 0 Z " fill="#D26A5C" transform="translate(333,91)"/>
<path d="M0 0 C0 0.66 0 1.32 0 2 C0.64 2.31 1.28 2.62 1.94 2.94 C4 4 4 4 5 5 C5.39 11.02 5.49 17.03 5.57 23.06 C5.61 25.09 5.66 27.12 5.73 29.16 C6.33 46.03 6.33 46.03 3.16 50.73 C0.85 52.49 -1.4 53.73 -4 55 C-5.71 56.4 -5.71 56.4 -7.14 57.91 C-8.93 59.73 -10.72 61.54 -12.52 63.35 C-14.82 65.81 -16.94 68.34 -19 71 C-19 70.34 -19 69.68 -19 69 C-65.2 69 -111.4 69 -159 69 C-159 68.67 -159 68.34 -159 68 C-158.43 68.01 -157.86 68.02 -157.27 68.02 C-143.38 68.21 -129.5 68.31 -115.61 68.33 C-108.89 68.35 -102.17 68.38 -95.46 68.48 C-88.97 68.58 -82.49 68.6 -76 68.58 C-73.53 68.58 -71.06 68.61 -68.59 68.67 C-56.34 69.54 -56.34 69.54 -45.23 65.65 C-42.04 61.88 -40.68 57.6 -39 53 C-34.93 46.76 -29.52 40.99 -24 36 C-23.34 36 -22.68 36 -22 36 C-22 35.34 -22 34.68 -22 34 C-20.32 32.49 -20.32 32.49 -18.12 30.88 C-17.05 30.07 -17.05 30.07 -15.95 29.24 C-14 28 -14 28 -12 28 C-12.03 27.33 -12.05 26.66 -12.08 25.97 C-12.18 22.92 -12.25 19.87 -12.31 16.81 C-12.38 15.23 -12.38 15.23 -12.44 13.62 C-12.56 5.79 -12.56 5.79 -9.72 1.78 C-6.28 -0.47 -4.03 -0.4 0 0 Z " fill="#6563EB" transform="translate(370,367)"/>
<path d="M0 0 C2.69 1.25 2.69 1.25 5 4 C5.88 7 6.53 10.02 7.19 13.08 C8.47 17.71 10.69 20.6 14.86 23.12 C19.33 24.95 24.49 24.79 29.07 23.35 C33.69 21.02 36.29 17.77 38 13 C38.19 11.63 38.34 10.25 38.44 8.88 C39 5 39 5 41.12 2 C44.8 -0.56 46.61 -0.78 51 0 C53.94 2 53.94 2 56 5 C57.25 14.18 53.9 22.63 48.6 30.03 C43.72 36.05 37.28 39.57 30 42 C19.3 42.98 11.17 42.23 2 36 C-1 33.44 -1 33.44 -3 31 C-3.68 30.26 -4.36 29.51 -5.06 28.75 C-10.28 21.34 -12.52 14.12 -11 5 C-8 0.41 -5.44 -1.02 0 0 Z " fill="#082C76" transform="translate(262,202)"/>
<path d="M0 0 C3.27 2.37 4.71 3.9 5.75 7.81 C3.64 16.77 -7.7 25.09 -14.05 31.57 C-15.32 32.86 -16.57 34.17 -17.82 35.48 C-19.64 37.39 -21.49 39.27 -23.34 41.16 C-23.89 41.74 -24.44 42.33 -25 42.94 C-28.01 45.93 -29.96 47.36 -34.29 47.43 C-39.13 46.87 -39.13 46.87 -41.56 44.44 C-42.21 43.81 -42.85 43.18 -43.51 42.54 C-44.33 41.7 -45.15 40.86 -46 40 C-47.25 38.78 -48.51 37.56 -49.77 36.34 C-51.14 35 -52.51 33.66 -53.88 32.31 C-54.54 31.66 -55.21 31.01 -55.9 30.33 C-56.53 29.7 -57.16 29.07 -57.8 28.43 C-58.37 27.86 -58.94 27.3 -59.52 26.72 C-62.13 23.69 -63.3 20.93 -63.38 16.94 C-63 13 -63 13 -61.5 11 C-57.86 9.54 -54.79 9.05 -51 10 C-47.94 11.96 -45.52 14.4 -43 17 C-42.25 17.74 -41.49 18.48 -40.72 19.25 C-38.79 21.15 -36.89 23.06 -35 25 C-31.15 23.42 -28.76 20.97 -25.87 18.03 C-25.39 17.54 -24.91 17.06 -24.42 16.56 C-22.9 15.03 -21.39 13.48 -19.88 11.94 C-18.36 10.39 -16.83 8.84 -15.31 7.3 C-13.93 5.9 -12.56 4.5 -11.18 3.1 C-7.55 -0.4 -5.01 -0.51 0 0 Z " fill="#6BCDD2" transform="translate(445,458)"/>
<path d="M0 0 C0.33 0 0.66 0 1 0 C2.02 4.21 2.11 8.16 2.1 12.49 C2.1 13.19 2.09 13.89 2.09 14.62 C2.09 16.85 2.08 19.08 2.06 21.31 C2.06 22.83 2.05 24.35 2.05 25.87 C2.04 29.58 2.02 33.29 2 37 C0.39 37.35 0.39 37.35 -1.26 37.7 C-12.04 40.08 -22.07 43.04 -32 48 C-32 35.13 -32 22.26 -32 9 C-31.67 9 -31.34 9 -31 9 C-31 11.97 -31 14.94 -31 18 C-30.36 17.73 -29.72 17.47 -29.06 17.2 C-19.43 13.26 -10.31 11.34 0 10 C0 6.7 0 3.4 0 0 Z " fill="#6865F4" transform="translate(407,366)"/>
<path d="M0 0 C0.59 0.13 1.19 0.27 1.8 0.4 C16.6 3.56 31.27 4.31 46.04 0.66 C49 0 49 0 53 0 C53.52 4.56 53.42 6.44 50.61 10.18 C49.53 11.26 48.43 12.33 47.31 13.37 C46.74 13.94 46.16 14.51 45.56 15.09 C43.72 16.89 41.86 18.66 40 20.44 C38.75 21.66 37.49 22.88 36.24 24.1 C33.18 27.09 30.1 30.05 27 33 C20.94 27.94 15.22 22.57 9.56 17.06 C8.64 16.19 7.72 15.33 6.77 14.43 C0.3 8.1 0.3 8.1 -0.59 4.81 C-0.6 2.87 -0.6 2.87 0 0 Z " fill="#F6DBBC" transform="translate(258,278)"/>
<path d="M0 0 C0 0.66 0 1.32 0 2 C0.64 2.31 1.28 2.62 1.94 2.94 C4 4 4 4 5 5 C5.39 11.02 5.49 17.03 5.57 23.06 C5.61 25.09 5.66 27.12 5.73 29.16 C6.33 46.06 6.33 46.06 3.07 50.81 C0.78 52.57 -1.4 53.75 -4 55 C-5.86 56.66 -5.86 56.66 -7.44 58.44 C-8.71 59.71 -8.71 59.71 -10 61 C-10.66 61 -11.32 61 -12 61 C-12.13 53.12 -12.21 45.23 -12.27 37.35 C-12.3 34.67 -12.33 31.98 -12.38 29.3 C-12.44 25.45 -12.47 21.59 -12.49 17.74 C-12.51 16.54 -12.54 15.34 -12.57 14.1 C-12.57 5.81 -12.57 5.81 -9.71 1.72 C-6.28 -0.46 -3.99 -0.39 0 0 Z " fill="#082C77" transform="translate(370,367)"/>
</svg>
