<?xml version="1.0" encoding="UTF-8"?>
<!-- Generator: visioncortex VTracer 0.6.4 -->
<svg version="1.1" xmlns="http://www.w3.org/2000/svg" width="640" height="640">
<path d="M0 0 C211.2 0 422.4 0 640 0 C640 211.2 640 422.4 640 640 C428.8 640 217.6 640 0 640 C0 428.8 0 217.6 0 0 Z " fill="#FEFEFE" transform="translate(0,0)"/>
<path d="M0 0 C1.22 -0 1.22 -0 2.47 -0.01 C4.19 -0.02 5.91 -0.02 7.63 -0.02 C10.24 -0.02 12.85 -0.04 15.46 -0.06 C17.14 -0.06 18.82 -0.06 20.5 -0.06 C21.27 -0.07 22.04 -0.08 22.84 -0.08 C29.5 -0.06 35.73 1.01 41.7 4.17 C42.33 4.5 42.97 4.83 43.62 5.17 C45.25 6.09 46.82 7.13 48.38 8.17 C51.62 7.81 53.74 6.33 56.45 4.61 C65.02 0.26 75.96 0.57 85.03 3.24 C91.89 6.4 98.11 10.88 101.16 17.99 C103.42 24.14 103.81 29.67 103.75 36.19 C103.75 37.72 103.75 37.72 103.75 39.28 C103.75 41.42 103.74 43.57 103.72 45.71 C103.7 48.99 103.7 52.27 103.71 55.55 C103.7 57.64 103.69 59.72 103.68 61.81 C103.68 62.79 103.69 63.77 103.69 64.78 C103.68 65.69 103.67 66.6 103.66 67.54 C103.65 68.34 103.65 69.14 103.64 69.96 C103.38 72.17 103.38 72.17 102.3 74.27 C101.04 76.31 101.04 76.31 102.38 79.17 C103.23 79.42 104.07 79.66 104.95 79.92 C112.64 82.72 117.75 89.01 121.38 96.17 C123.65 102.97 123.56 112.43 120.82 119.11 C116.96 126.32 111.81 131.74 104.38 135.17 C103.39 135.17 102.4 135.17 101.38 135.17 C101.35 135.83 101.31 136.5 101.27 137.19 C99.85 157.05 91.01 174.64 76.38 188.17 C75.71 188.54 75.03 188.9 74.34 189.28 C71.5 191.07 70.13 192.26 68.38 195.17 C67.06 202.05 67.25 209.19 67.38 216.17 C68.5 216.14 68.5 216.14 69.64 216.11 C91.47 216.52 114.49 227.54 130.38 242.17 C130.9 242.64 131.42 243.11 131.95 243.59 C144.32 254.93 152.99 267.66 159.38 283.17 C159.69 283.86 159.99 284.55 160.3 285.26 C167.1 301.63 166.56 319.79 166.38 337.17 C166.99 337.18 167.59 337.2 168.21 337.21 C186.82 337.9 203.81 349.27 216.38 362.17 C230.15 377.47 236.55 393.75 236.63 414.17 C236.66 416.06 236.66 416.06 236.7 418 C236.77 436.29 230.84 451.93 219.38 466.17 C218.94 466.78 218.49 467.39 218.03 468.02 C207.71 481.41 189.85 491.55 173.36 494.77 C167.68 495.34 162.03 495.49 156.32 495.54 C155.23 495.56 154.14 495.57 153.02 495.59 C142.4 495.52 132.74 493.43 123.32 488.48 C122.64 488.13 121.97 487.78 121.27 487.42 C99.72 476 86.74 458.12 79.38 435.17 C75.25 421.55 75.65 401.91 82.38 389.17 C81.38 389.17 80.38 389.18 79.35 389.18 C55.02 389.29 30.7 389.38 6.37 389.43 C-5.4 389.45 -17.16 389.49 -28.93 389.55 C-39.18 389.59 -49.43 389.63 -59.69 389.64 C-65.12 389.64 -70.55 389.66 -75.98 389.7 C-81.08 389.73 -86.19 389.74 -91.3 389.73 C-93.18 389.73 -95.06 389.74 -96.93 389.76 C-99.49 389.79 -102.05 389.78 -104.61 389.77 C-105.36 389.78 -106.1 389.8 -106.87 389.81 C-110.76 389.76 -112.48 389.28 -115.58 386.84 C-118.25 383.33 -118.25 381.21 -118.25 376.82 C-118.26 375.73 -118.26 375.73 -118.27 374.63 C-118.29 372.24 -118.27 369.86 -118.25 367.47 C-118.25 365.79 -118.25 364.12 -118.25 362.44 C-118.26 358.92 -118.24 355.4 -118.21 351.88 C-118.18 347.42 -118.19 342.96 -118.2 338.51 C-118.22 335.04 -118.21 331.57 -118.19 328.1 C-118.19 326.46 -118.19 324.82 -118.19 323.18 C-118.23 308.02 -116.12 293.25 -109.87 279.29 C-109.52 278.51 -109.18 277.72 -108.83 276.91 C-103.86 265.87 -96.97 256.89 -88.62 248.17 C-87.99 247.48 -87.37 246.79 -86.73 246.09 C-69.09 227.3 -44.73 218.25 -19.62 216.17 C-19.55 212.31 -19.58 208.46 -19.62 204.61 C-19.59 202.98 -19.59 202.98 -19.56 201.31 C-19.59 195.25 -19.59 195.25 -22.3 190.02 C-24.34 188.29 -26.45 186.73 -28.62 185.17 C-40.36 171.96 -49.95 153.36 -49.68 135.29 C-49.67 134.51 -49.66 133.73 -49.65 132.93 C-49.64 132.35 -49.63 131.77 -49.62 131.17 C-50.44 130.98 -51.27 130.8 -52.12 130.61 C-59.68 127.5 -65.1 121.48 -68.62 114.17 C-71.05 106.84 -70.82 97.7 -67.55 90.73 C-63.97 84.56 -59.09 79.32 -52.62 76.17 C-51.28 75.83 -49.95 75.5 -48.62 75.17 C-48.29 74.51 -47.96 73.85 -47.62 73.17 C-48.4 72.96 -49.18 72.76 -49.99 72.54 C-63.07 67.58 -73.32 58.45 -79.72 46.03 C-81.7 41.32 -82.29 37.24 -81.62 32.17 C-77.93 28.47 -73.73 26.85 -68.87 25.23 C-68.13 24.98 -67.39 24.72 -66.63 24.46 C-62.06 22.9 -57.46 21.55 -52.81 20.27 C-45.5 18.26 -39.62 15.88 -33.62 11.17 C-22.92 3.45 -13.18 0.02 0 0 Z " fill="#BA99F3" transform="translate(260.6171875,65.83203125)"/>
<path d="M0 0 C1.22 -0 1.22 -0 2.47 -0.01 C4.19 -0.02 5.91 -0.02 7.63 -0.02 C10.24 -0.02 12.85 -0.04 15.46 -0.06 C17.14 -0.06 18.82 -0.06 20.5 -0.06 C21.27 -0.07 22.04 -0.08 22.84 -0.08 C29.5 -0.06 35.73 1.01 41.7 4.17 C42.33 4.5 42.97 4.83 43.62 5.17 C45.25 6.09 46.82 7.13 48.38 8.17 C51.62 7.81 53.74 6.33 56.45 4.61 C65.02 0.26 75.96 0.57 85.03 3.24 C91.89 6.4 98.11 10.88 101.16 17.99 C103.42 24.14 103.81 29.67 103.75 36.19 C103.75 37.72 103.75 37.72 103.75 39.28 C103.75 41.42 103.74 43.57 103.72 45.71 C103.7 48.99 103.7 52.27 103.71 55.55 C103.7 57.64 103.69 59.72 103.68 61.81 C103.68 62.79 103.69 63.77 103.69 64.78 C103.68 65.69 103.67 66.6 103.66 67.54 C103.65 68.34 103.65 69.14 103.64 69.96 C103.38 72.17 103.38 72.17 102.3 74.27 C101.04 76.31 101.04 76.31 102.38 79.17 C103.23 79.42 104.07 79.66 104.95 79.92 C112.64 82.72 117.75 89.01 121.38 96.17 C123.65 102.97 123.56 112.43 120.82 119.11 C116.96 126.32 111.81 131.74 104.38 135.17 C103.39 135.17 102.4 135.17 101.38 135.17 C101.35 135.83 101.31 136.5 101.27 137.19 C99.85 157.05 91.01 174.64 76.38 188.17 C75.71 188.54 75.03 188.9 74.34 189.28 C71.5 191.07 70.13 192.26 68.38 195.17 C67.06 202.05 67.25 209.19 67.38 216.17 C68.5 216.14 68.5 216.14 69.64 216.11 C91.47 216.52 114.49 227.54 130.38 242.17 C130.9 242.64 131.42 243.11 131.95 243.59 C144.32 254.93 152.99 267.66 159.38 283.17 C159.69 283.86 159.99 284.55 160.3 285.26 C165.26 297.2 165.8 309.35 165.57 322.04 C165.56 323.52 165.54 325 165.53 326.48 C165.5 330.04 165.44 333.6 165.38 337.17 C159.77 337.17 154.16 337.17 148.38 337.17 C148.36 335.18 148.33 333.18 148.3 331.13 C148.19 311.28 148.19 311.28 143.38 292.17 C142.96 291.09 142.54 290 142.1 288.89 C132.44 266.34 116.08 249.28 93.24 239.9 C85.8 236.99 78.37 234.7 70.38 234.17 C69.76 234.02 69.14 233.87 68.5 233.72 C65.77 233.29 64.06 233.4 61.38 234.17 C56.64 237.73 52.69 241.97 48.63 246.29 C47.51 247.45 46.39 248.6 45.27 249.75 C40.44 254.74 35.8 259.81 31.38 265.17 C29.57 267.11 29.57 267.11 27.38 268.17 C22.18 268.2 19.41 267.65 15.6 264.03 C14.3 262.65 13.01 261.26 11.73 259.85 C10.3 258.35 8.87 256.85 7.44 255.35 C5.22 252.98 3 250.6 0.8 248.21 C-1.35 245.9 -3.52 243.63 -5.7 241.35 C-6.35 240.63 -6.99 239.91 -7.66 239.17 C-10.38 236.35 -12.28 234.4 -16.23 233.72 C-18.75 233.7 -21.13 233.85 -23.62 234.17 C-24.57 234.25 -25.53 234.34 -26.51 234.43 C-44 237.59 -59.36 245.42 -72.62 257.17 C-73.64 258.05 -73.64 258.05 -74.69 258.96 C-88.66 271.86 -98.8 293.32 -99.78 312.24 C-99.79 313.33 -99.81 314.42 -99.82 315.54 C-99.84 316.78 -99.86 318.02 -99.88 319.3 C-99.9 320.64 -99.92 321.98 -99.93 323.32 C-99.95 324.7 -99.98 326.08 -100 327.46 C-100.05 331.08 -100.1 334.7 -100.15 338.32 C-100.2 342.02 -100.26 345.72 -100.31 349.42 C-100.42 356.67 -100.52 363.92 -100.62 371.17 C-89.4 371.17 -78.18 371.17 -66.62 371.17 C-66.66 366.67 -66.71 362.17 -66.76 357.53 C-66.78 353.94 -66.81 350.35 -66.82 346.76 C-66.85 342.97 -66.87 339.18 -66.92 335.39 C-66.96 331.74 -66.99 328.09 -67 324.43 C-67 323.04 -67.02 321.65 -67.04 320.26 C-67.07 318.31 -67.07 316.36 -67.07 314.41 C-67.08 313.29 -67.09 312.18 -67.1 311.04 C-66.51 307.5 -65.41 306.34 -62.62 304.17 C-60.4 303.64 -60.4 303.64 -58.12 303.67 C-57.36 303.66 -56.61 303.65 -55.84 303.64 C-53.62 304.17 -53.62 304.17 -49.62 308.17 C-49.62 328.96 -49.62 349.75 -49.62 371.17 C-3.42 371.17 42.78 371.17 90.38 371.17 C90.38 372.16 90.38 373.15 90.38 374.17 C89.72 374.17 89.06 374.17 88.38 374.17 C88.01 375.41 88.01 375.41 87.63 376.67 C86.66 379.4 85.61 381.81 84.3 384.39 C83.94 385.1 83.58 385.81 83.21 386.54 C82.94 387.08 82.67 387.61 82.38 388.17 C56.9 388.26 31.41 388.33 5.92 388.38 C-5.91 388.4 -17.74 388.42 -29.58 388.47 C-39.89 388.51 -50.2 388.54 -60.51 388.54 C-65.97 388.55 -71.43 388.56 -76.9 388.59 C-82.03 388.62 -87.17 388.63 -92.31 388.62 C-94.2 388.62 -96.09 388.63 -97.97 388.64 C-100.55 388.66 -103.12 388.66 -105.7 388.65 C-106.45 388.66 -107.2 388.67 -107.97 388.68 C-111.4 388.64 -113.29 388.41 -116.08 386.34 C-118.31 383.19 -118.13 380.77 -118.13 376.93 C-118.14 376.21 -118.15 375.49 -118.16 374.74 C-118.17 372.35 -118.16 369.96 -118.15 367.57 C-118.15 365.89 -118.16 364.21 -118.16 362.53 C-118.17 359.01 -118.16 355.48 -118.14 351.96 C-118.12 347.49 -118.13 343.02 -118.15 338.56 C-118.17 335.08 -118.16 331.61 -118.15 328.14 C-118.15 326.49 -118.15 324.85 -118.16 323.21 C-118.23 308.03 -116.13 293.27 -109.87 279.29 C-109.52 278.51 -109.18 277.72 -108.83 276.91 C-103.86 265.87 -96.97 256.89 -88.62 248.17 C-87.99 247.48 -87.37 246.79 -86.73 246.09 C-69.09 227.3 -44.73 218.25 -19.62 216.17 C-19.55 212.31 -19.58 208.46 -19.62 204.61 C-19.59 202.98 -19.59 202.98 -19.56 201.31 C-19.59 195.25 -19.59 195.25 -22.3 190.02 C-24.34 188.29 -26.45 186.73 -28.62 185.17 C-40.36 171.96 -49.95 153.36 -49.68 135.29 C-49.67 134.51 -49.66 133.73 -49.65 132.93 C-49.64 132.35 -49.63 131.77 -49.62 131.17 C-50.44 130.98 -51.27 130.8 -52.12 130.61 C-59.68 127.5 -65.1 121.48 -68.62 114.17 C-71.05 106.84 -70.82 97.7 -67.55 90.73 C-63.97 84.56 -59.09 79.32 -52.62 76.17 C-51.28 75.83 -49.95 75.5 -48.62 75.17 C-48.29 74.51 -47.96 73.85 -47.62 73.17 C-48.4 72.96 -49.18 72.76 -49.99 72.54 C-63.07 67.58 -73.32 58.45 -79.72 46.03 C-81.7 41.32 -82.29 37.24 -81.62 32.17 C-77.93 28.47 -73.73 26.85 -68.87 25.23 C-68.13 24.98 -67.39 24.72 -66.63 24.46 C-62.06 22.9 -57.46 21.55 -52.81 20.27 C-45.5 18.26 -39.62 15.88 -33.62 11.17 C-22.92 3.45 -13.18 0.02 0 0 Z " fill="#082C76" transform="translate(260.6171875,65.83203125)"/>
<path d="M0 0 C38.67 -0.32 77.36 0.66 116 2 C116.06 3.01 116.06 3.01 116.11 4.05 C116.18 4.94 116.24 5.83 116.31 6.75 C116.4 8.07 116.4 8.07 116.49 9.42 C117.07 12.37 117.96 13.82 120 16 C122.55 16.91 122.55 16.91 125.38 17.38 C131.62 18.93 131.62 18.93 134.19 21.62 C136.54 26 136.87 29.15 136 34 C134.81 37.31 134.81 37.31 132 40 C128.69 41.17 125.42 42.07 122 42.85 C118.92 43.77 118.92 43.77 117.15 46.09 C115.67 49.84 115.39 53.46 115.12 57.44 C113.54 74.79 106.44 89.63 93 101 C79.84 110.95 64.89 115.69 48.46 113.69 C32.35 110.8 18.84 102.68 9.09 89.4 C2.32 79.2 -1.74 68.76 -2.2 56.47 C-2.23 55.67 -2.26 54.86 -2.29 54.03 C-2.35 52.4 -2.38 50.78 -2.4 49.16 C-2.47 44.68 -2.47 44.68 -4.79 41.02 C-6.89 40.05 -8.67 39.46 -10.94 39.06 C-15.55 38.02 -18.51 36.06 -21.31 32.19 C-22.78 27.51 -22.57 24.1 -20.31 19.75 C-16.72 15.48 -13.77 14.09 -8.38 13.12 C-4.72 12.38 -4.72 12.38 -2 9.81 C-0.84 6.56 -0.45 3.42 0 0 Z " fill="#FBDEBD" transform="translate(230,143)"/>
<path d="M0 0 C1.66 1.23 3.31 2.48 4.94 3.75 C5.7 4.32 6.46 4.9 7.25 5.49 C17.58 13.86 25.14 26.78 27.94 39.75 C28.16 43.31 28.12 46.87 28.12 50.44 C28.14 51.39 28.15 52.35 28.16 53.33 C28.2 70.52 21.44 85.01 9.69 97.44 C-3.54 110.06 -18.65 115.65 -36.69 115.32 C-54.89 114.55 -69.1 107.02 -81.46 93.77 C-84.97 89.7 -87.63 85.52 -90.06 80.75 C-90.45 80.07 -90.84 79.4 -91.23 78.7 C-98.6 65.37 -97.63 47.22 -94.04 32.83 C-88.42 15.05 -74.85 2.51 -58.75 -6 C-39.07 -12.67 -17.61 -11.88 0 0 Z " fill="#FDFEFE" transform="translate(452.0625,429.25)"/>
<path d="M0 0 C0.33 0 0.66 0 1 0 C1.98 4.07 2.12 7.87 2.1 12.05 C2.1 13.04 2.1 13.04 2.09 14.05 C2.09 16.14 2.08 18.22 2.06 20.31 C2.06 21.74 2.05 23.16 2.05 24.58 C2.04 28.05 2.02 31.53 2 35 C7.61 35 13.22 35 19 35 C19 29.06 19 23.12 19 17 C19.33 17 19.66 17 20 17 C20 22.94 20 28.88 20 35 C21.98 35.06 21.98 35.06 24 35.12 C44.12 37.18 61.82 49.88 74.38 65.06 C85.41 79.62 90.18 93.86 90.25 112 C90.28 113.9 90.28 113.9 90.31 115.83 C90.39 134.12 84.45 149.77 73 164 C72.55 164.61 72.11 165.22 71.65 165.85 C61.33 179.24 43.47 189.39 26.98 192.6 C21.3 193.17 15.64 193.32 9.94 193.38 C8.85 193.39 7.76 193.4 6.64 193.42 C-3.98 193.35 -13.64 191.27 -23.06 186.31 C-23.74 185.96 -24.42 185.61 -25.11 185.25 C-46.67 173.83 -59.65 155.96 -67 133 C-71.21 119.13 -70.51 100.03 -64 87 C-128.35 87 -192.7 87 -259 87 C-259 86.67 -259 86.34 -259 86 C-194.65 85.67 -130.3 85.34 -64 85 C-62.02 80.71 -60.04 76.42 -58 72 C-57.34 72 -56.68 72 -56 72 C-56 71.01 -56 70.02 -56 69 C-65.57 69 -75.14 69 -85 69 C-76.79 52.58 -66.53 37.42 -51 27 C-50.34 27 -49.68 27 -49 27 C-49.03 26.39 -49.05 25.78 -49.08 25.15 C-49.18 22.37 -49.25 19.59 -49.31 16.81 C-49.38 15.37 -49.38 15.37 -49.44 13.9 C-49.56 6.77 -49.56 6.77 -46.7 2.86 C-43.13 0.4 -41.25 0.24 -37 1 C-34.06 2.88 -34.06 2.88 -32 6 C-31.6 9.38 -31.7 12.62 -32 16 C-31.2 15.67 -30.4 15.35 -29.57 15.01 C-19.85 11.28 -10.29 9.44 0 8 C0 5.36 0 2.72 0 0 Z M-40.43 76.64 C-51.64 91.03 -52.6 110.27 -50.57 127.69 C-48.1 140.37 -40.97 150.01 -32 159 C-31.29 159.72 -30.58 160.44 -29.85 161.19 C-18.46 172.06 -4.09 176.6 11.44 176.44 C12.95 176.43 12.95 176.43 14.49 176.41 C21.94 176.24 28.28 175.38 35 172 C36 171.5 37 171 38.03 170.49 C45.25 166.58 51.2 161.78 57 156 C57.56 155.46 58.13 154.92 58.71 154.36 C71.3 141.17 73.52 123.73 73.27 106.4 C72.76 91.71 64.57 77.94 54 68 C23.46 42.69 -14.67 47.16 -40.43 76.64 Z " fill="#6ACAD1" transform="translate(407,368)"/>
<path d="M0 0 C1.14 0.02 2.28 0.04 3.45 0.07 C6.7 0.14 9.94 0.25 13.19 0.38 C14.41 0.41 14.41 0.41 15.66 0.45 C23.43 0.68 28.66 0.95 34.44 6.56 C36.76 10.3 36.84 13 37.19 17.38 C37.68 18.86 37.68 18.86 38.19 20.38 C42.66 21.87 46.71 21.87 51.19 20.38 C51.96 17.77 51.96 17.77 52.44 14.69 C53.62 9.65 54.7 6.37 58.96 3.3 C64.73 0.9 70.96 1.63 76.75 3.56 C79.6 5.68 80.67 7.16 82.19 10.38 C82.44 13.17 82.54 15.73 82.48 18.52 C82.48 19.2 82.47 19.89 82.47 20.59 C82.46 23.12 82.41 25.65 82.38 28.19 C82.34 31.25 82.31 34.32 82.27 37.39 C82.26 38.91 82.24 40.43 82.22 41.96 C82.21 43.08 82.2 44.21 82.19 45.38 C57.49 45.5 32.81 45.26 8.12 44.63 C3.73 44.52 -0.67 44.42 -5.06 44.32 C-8.51 44.24 -11.97 44.16 -15.42 44.07 C-17.04 44.03 -18.66 43.99 -20.29 43.96 C-37.73 43.58 -51.63 41.5 -64.27 28.33 C-65.81 26.38 -65.81 26.38 -65.81 24.38 C-59.8 22.27 -53.85 20.33 -47.62 18.94 C-40.06 17.1 -34.44 13.76 -28.44 8.88 C-19.47 1.78 -11.33 -0.4 0 0 Z " fill="#D0695C" transform="translate(264.8125,82.625)"/>
<path d="M0 0 C0.33 0 0.66 0 1 0 C1.98 4.07 2.12 7.87 2.1 12.05 C2.1 12.71 2.09 13.37 2.09 14.05 C2.09 16.14 2.08 18.22 2.06 20.31 C2.06 21.74 2.05 23.16 2.05 24.58 C2.04 28.05 2.02 31.53 2 35 C0.6 35.28 0.6 35.28 -0.83 35.57 C-2.06 35.83 -3.3 36.09 -4.58 36.36 C-5.8 36.61 -7.02 36.86 -8.28 37.12 C-22.94 40.59 -34.05 47.6 -44.82 57.8 C-45.62 58.55 -45.62 58.55 -46.43 59.31 C-48.08 60.99 -48.08 60.99 -49.41 63.15 C-52.03 66.95 -53.72 68.76 -58.37 69.64 C-62.42 69.79 -66.39 69.7 -70.44 69.5 C-71.85 69.46 -73.26 69.42 -74.68 69.39 C-78.12 69.3 -81.56 69.17 -85 69 C-77.01 52.57 -66.43 37.35 -51 27 C-50.34 27 -49.68 27 -49 27 C-49.03 26.39 -49.05 25.78 -49.08 25.15 C-49.18 22.37 -49.25 19.59 -49.31 16.81 C-49.35 15.85 -49.4 14.89 -49.44 13.9 C-49.56 6.77 -49.56 6.77 -46.7 2.86 C-43.13 0.4 -41.25 0.24 -37 1 C-34.06 2.88 -34.06 2.88 -32 6 C-31.6 9.38 -31.7 12.62 -32 16 C-31.2 15.67 -30.4 15.35 -29.57 15.01 C-19.85 11.28 -10.29 9.44 0 8 C0 5.36 0 2.72 0 0 Z " fill="#6764F4" transform="translate(407,368)"/>
<path d="M0 0 C4.76 4.02 5.57 7.66 6.55 13.66 C7.34 17.77 8.84 20.16 12.21 22.59 C17.27 25.14 22.48 24.79 28 24 C31.32 22.66 33.15 21.06 35 18 C35.92 14.95 36.57 11.91 37.2 8.79 C38.01 5.96 38.65 4.7 40.81 2.75 C44.39 0.79 46.01 0.15 50 1 C52.88 2.81 52.88 2.81 55 6 C57.1 15.56 52.72 22.98 47.84 30.88 C43.12 37.36 34.98 41.43 27.21 42.75 C16.84 43.91 8.73 41.87 0.14 35.79 C-7.1 29.73 -11.2 22.5 -12.35 13.16 C-12.59 8.46 -12.54 5.83 -9.94 1.81 C-6.19 -0.5 -4.33 -0.85 0 0 Z " fill="#0A2D76" transform="translate(265,185)"/>
<path d="M0 0 C3.48 2.97 4.86 4.74 5.38 9.31 C3.3 14.89 -0.61 18.1 -5 22 C-5.66 22.59 -6.31 23.17 -6.99 23.78 C-8.26 24.9 -9.55 26.01 -10.84 27.12 C-13.42 29.36 -15.92 31.68 -18.44 34 C-31.22 45.58 -31.22 45.58 -36.19 46.75 C-42.31 45.12 -46.04 39.97 -50 35.32 C-53.2 31.61 -56.54 28.02 -59.86 24.42 C-63.96 19.79 -63.96 19.79 -64.12 16.84 C-63.48 10.65 -63.48 10.65 -61.44 7.88 C-57.79 6.57 -54.62 6.83 -51 8 C-48.5 10.06 -48.5 10.06 -46 13 C-44.61 14.38 -43.22 15.76 -41.81 17.12 C-39.52 19.37 -37.79 21.31 -36 24 C-32.96 22.64 -30.81 21.08 -28.43 18.77 C-27.76 18.13 -27.1 17.5 -26.42 16.84 C-25.72 16.17 -25.03 15.5 -24.31 14.81 C-6.86 -1.72 -6.86 -1.72 0 0 Z " fill="#6BCDD2" transform="translate(446,459)"/>
<path d="M0 0 C5 1 5 1 7.34 1.75 C22 6.32 38.37 4.97 53 1 C55.09 15.74 55.09 15.74 50.56 21.84 C47.32 25.55 43.69 28.81 40 32.06 C38.74 33.23 37.49 34.41 36.24 35.59 C33.2 38.44 30.12 41.23 27 44 C22.02 39.83 17.33 35.48 12.75 30.88 C12.14 30.27 11.53 29.66 10.9 29.04 C8.51 26.65 6.26 24.36 4.27 21.63 C3 19.69 3 19.69 0 19 C0 12.73 0 6.46 0 0 Z " fill="#F8DCBC" transform="translate(258,269)"/>
<path d="M0 0 C0.32 4.69 0.59 9.39 0.81 14.09 C0.89 15.68 0.99 17.28 1.1 18.87 C2.11 33.77 2.11 33.77 -1.53 39.06 C-7.01 43.97 -14.57 42.84 -21.44 42.5 C-22.85 42.46 -24.26 42.42 -25.68 42.39 C-29.12 42.3 -32.56 42.17 -36 42 C-30.54 30.76 -14.8 0 0 0 Z " fill="#6764F5" transform="translate(358,395)"/>
<path d="M0 0 C2.71 2 4.64 3.62 5.51 6.97 C5.76 9.37 5.85 11.73 5.88 14.14 C5.89 15.02 5.91 15.9 5.93 16.81 C5.96 18.67 5.98 20.54 5.98 22.4 C6 25.23 6.1 28.05 6.21 30.88 C6.45 44.07 6.45 44.07 2.62 49.16 C-0.15 51.41 -2.93 53.19 -6 55 C-7.34 56.33 -8.67 57.66 -10 59 C-10.66 59 -11.32 59 -12 59 C-12.13 51.4 -12.21 43.8 -12.27 36.2 C-12.3 33.62 -12.33 31.03 -12.38 28.45 C-12.44 24.73 -12.47 21.02 -12.49 17.3 C-12.53 15.57 -12.53 15.57 -12.57 13.8 C-12.57 5.8 -12.57 5.8 -9.69 1.77 C-6.12 -0.58 -4.2 -0.75 0 0 Z " fill="#072C77" transform="translate(370,369)"/>
</svg>
