<?xml version="1.0" encoding="UTF-8"?>
<!-- Generator: visioncortex VTracer 0.6.4 -->
<svg version="1.1" xmlns="http://www.w3.org/2000/svg" width="640" height="640">
<path d="M0 0 C211.2 0 422.4 0 640 0 C640 211.2 640 422.4 640 640 C428.8 640 217.6 640 0 640 C0 428.8 0 217.6 0 0 Z " fill="#FEFEFE" transform="translate(0,0)"/>
<path d="M0 0 C5.53 4.38 10.22 10.19 11.06 17.4 C11.24 20.09 11.35 22.77 11.45 25.46 C11.49 26.46 11.53 27.45 11.57 28.48 C11.66 30.6 11.74 32.71 11.82 34.83 C11.94 38.01 12.07 41.2 12.2 44.38 C12.66 55.68 12.94 66.94 12.81 78.25 C13.76 78.39 14.7 78.53 15.68 78.67 C21.3 79.71 25.16 83.55 29.06 87.56 C34.32 95.63 35.99 102.56 34.81 112.25 C32.34 121.56 27.83 126.83 19.93 132.11 C17.81 133.25 17.81 133.25 14.81 133.25 C14.85 133.9 14.88 134.56 14.92 135.23 C15.43 152.55 8.85 167.48 -2.79 180.06 C-9.16 186.53 -9.16 186.53 -12.44 188.83 C-14.53 190.23 -14.53 190.23 -14.94 193.44 C-15.02 194.37 -15.1 195.29 -15.19 196.25 C-14.04 196.22 -12.89 196.18 -11.7 196.14 C-7.28 196.15 -3.28 196.88 1 197.94 C1.74 198.12 2.48 198.3 3.24 198.49 C30.82 205.49 53.83 222.19 68.68 246.54 C79.8 265.46 84.36 285.39 83.81 307.25 C84.84 307.22 85.87 307.19 86.93 307.15 C105.47 307.62 122.33 320.15 134.72 332.91 C151.04 351.15 154.89 371.45 154.03 395.16 C153.43 403.58 151.58 410.74 147.81 418.25 C147.44 419.06 147.07 419.88 146.69 420.71 C143.78 426.91 140.19 432.01 135.81 437.25 C135.31 437.91 134.81 438.56 134.3 439.24 C125.29 450.57 110.52 459.63 96.56 463.06 C95.71 463.27 94.86 463.49 93.98 463.7 C79.39 467 61.94 467.09 47.88 461.56 C47.18 461.29 46.49 461.02 45.77 460.74 C25.38 452.6 10.49 437.18 1.21 417.55 C-2.44 408.95 -4.33 400.69 -4.29 391.32 C-4.28 390.03 -4.28 388.74 -4.28 387.41 C-4.27 386.07 -4.26 384.72 -4.25 383.38 C-4.24 382.01 -4.24 380.64 -4.24 379.27 C-4.22 375.93 -4.21 372.59 -4.19 369.25 C-5.64 369.25 -5.64 369.25 -7.13 369.26 C-30.7 369.32 -54.28 369.37 -77.86 369.41 C-89.26 369.42 -100.66 369.44 -112.06 369.48 C-122 369.51 -131.93 369.53 -141.87 369.53 C-147.13 369.54 -152.39 369.55 -157.66 369.57 C-162.61 369.59 -167.56 369.59 -172.51 369.59 C-174.33 369.59 -176.15 369.6 -177.97 369.61 C-180.45 369.62 -182.93 369.62 -185.41 369.61 C-186.13 369.62 -186.85 369.63 -187.6 369.64 C-191.97 369.6 -194.72 368.95 -198.19 366.25 C-200.65 362.56 -200.46 360.68 -200.49 356.27 C-200.5 355.56 -200.51 354.85 -200.52 354.12 C-200.54 351.77 -200.55 349.42 -200.56 347.07 C-200.57 345.42 -200.58 343.77 -200.59 342.12 C-200.6 338.65 -200.61 335.18 -200.61 331.71 C-200.62 328.18 -200.64 324.66 -200.67 321.14 C-201.05 284.75 -196.62 254.7 -170.76 227.23 C-154.87 211.03 -131.89 197.04 -108.63 196.15 C-107.48 196.17 -107.48 196.17 -106.31 196.19 C-105.53 196.2 -104.75 196.21 -103.95 196.21 C-103.08 196.23 -103.08 196.23 -102.19 196.25 C-102.19 194.93 -102.19 193.61 -102.19 192.25 C-102.89 192.01 -103.6 191.77 -104.32 191.53 C-118.53 185.19 -127.89 170.39 -133.28 156.42 C-134.3 152.85 -134.6 149.57 -134.81 145.88 C-134.92 144.01 -134.92 144.01 -135.04 142.1 C-135.09 141.16 -135.14 140.22 -135.19 139.25 C-135.92 139.14 -136.65 139.03 -137.41 138.91 C-144.5 137.22 -150.02 132.15 -154.04 126.23 C-157.94 119.5 -157.82 111.83 -157.19 104.25 C-154.79 95.42 -150.02 88.92 -142.19 84.25 C-141.53 84.25 -140.87 84.25 -140.19 84.25 C-140.19 83.59 -140.19 82.93 -140.19 82.25 C-140.92 82 -141.65 81.74 -142.41 81.48 C-151.11 77.62 -157.98 68.42 -164.28 61.48 C-167.4 58.06 -170.53 55.11 -174.19 52.25 C-175.74 49.15 -175.47 46.67 -175.19 43.25 C-172.75 39.13 -169.43 35.76 -166.19 32.25 C-164.98 30.89 -164.98 30.89 -163.75 29.5 C-156.61 21.82 -149.63 18.05 -139.38 16.12 C-133.06 14.72 -129.24 11.44 -124.41 7.38 C-114.06 -1.19 -101.7 -4.02 -88.51 -4.16 C-87.61 -4.17 -86.72 -4.18 -85.8 -4.19 C-83.92 -4.21 -82.05 -4.22 -80.17 -4.23 C-77.33 -4.25 -74.49 -4.31 -71.64 -4.38 C-55.02 -4.56 -55.02 -4.56 -47.24 1.15 C-46.22 1.69 -46.22 1.69 -45.19 2.25 C-43.01 1.59 -43.01 1.59 -41.19 0.25 C-40.11 -0.37 -40.11 -0.37 -39 -1 C-37.5 -1.88 -36 -2.75 -34.5 -3.63 C-23.64 -8.89 -9.57 -6.63 0 0 Z " fill="#BB99F3" transform="translate(343.1875,95.75)"/>
<path d="M0 0 C5.53 4.38 10.22 10.19 11.06 17.4 C11.24 20.09 11.35 22.77 11.45 25.46 C11.49 26.46 11.53 27.45 11.57 28.48 C11.66 30.6 11.74 32.71 11.82 34.83 C11.94 38.01 12.07 41.2 12.2 44.38 C12.66 55.68 12.94 66.94 12.81 78.25 C13.76 78.39 14.7 78.53 15.68 78.67 C21.3 79.71 25.16 83.55 29.06 87.56 C34.32 95.63 35.99 102.56 34.81 112.25 C32.34 121.56 27.83 126.83 19.93 132.11 C17.81 133.25 17.81 133.25 14.81 133.25 C14.85 133.9 14.88 134.56 14.92 135.23 C15.43 152.55 8.85 167.48 -2.79 180.06 C-9.16 186.53 -9.16 186.53 -12.44 188.83 C-14.53 190.23 -14.53 190.23 -14.94 193.44 C-15.02 194.37 -15.1 195.29 -15.19 196.25 C-14.04 196.22 -12.89 196.18 -11.7 196.14 C-7.28 196.15 -3.28 196.88 1 197.94 C1.74 198.12 2.48 198.3 3.24 198.49 C30.82 205.49 53.83 222.19 68.68 246.54 C77.89 262.23 83.05 278.37 82.88 296.69 C82.87 297.61 82.87 298.53 82.86 299.48 C82.85 301.74 82.83 303.99 82.81 306.25 C77.2 306.25 71.59 306.25 65.81 306.25 C65.71 303.73 65.61 301.22 65.5 298.62 C64.2 274.54 54.92 252.63 37.29 235.85 C24.19 224.61 8.77 217.38 -8.19 214.25 C-9.12 214.06 -10.06 213.88 -11.03 213.69 C-16.39 213.12 -20.4 213.32 -24.71 216.7 C-28.47 220.05 -31.85 223.73 -35.25 227.44 C-36.45 228.7 -37.66 229.96 -38.87 231.21 C-44.83 237.43 -44.83 237.43 -50.36 244.02 C-52.82 247.02 -54.56 248.13 -58.39 248.84 C-63.97 247.97 -66.28 244.88 -69.99 240.81 C-71.48 239.26 -72.96 237.71 -74.45 236.16 C-76.76 233.71 -79.07 231.24 -81.37 228.78 C-83.6 226.39 -85.86 224.04 -88.12 221.69 C-88.79 220.94 -89.47 220.2 -90.16 219.43 C-93.78 215.61 -93.78 215.61 -98.58 213.79 C-100.84 213.77 -102.95 213.93 -105.19 214.25 C-106.23 214.32 -107.27 214.4 -108.35 214.48 C-130.54 217.52 -150.71 229.5 -164.47 247.19 C-174.77 261.23 -182.14 278.02 -182.39 295.62 C-182.41 296.86 -182.43 298.1 -182.45 299.38 C-182.47 300.72 -182.49 302.06 -182.5 303.4 C-182.52 304.78 -182.55 306.16 -182.57 307.54 C-182.62 311.16 -182.67 314.78 -182.72 318.4 C-182.77 322.1 -182.83 325.8 -182.88 329.5 C-182.99 336.75 -183.09 344 -183.19 351.25 C-171.97 351.25 -160.75 351.25 -149.19 351.25 C-149.25 346.76 -149.3 342.27 -149.36 337.64 C-149.4 334.06 -149.42 330.47 -149.45 326.89 C-149.47 323.11 -149.51 319.33 -149.56 315.54 C-149.62 311.9 -149.65 308.26 -149.66 304.61 C-149.67 303.22 -149.69 301.83 -149.72 300.45 C-149.75 298.5 -149.75 296.55 -149.76 294.6 C-149.77 292.94 -149.77 292.94 -149.79 291.24 C-148.99 287.26 -147.31 285.76 -144.19 283.25 C-140.51 282.64 -138.72 282.99 -135.38 284.62 C-133.19 286.25 -133.19 286.25 -132.19 288.25 C-132.19 309.04 -132.19 329.83 -132.19 351.25 C-87.64 351.25 -43.09 351.25 2.81 351.25 C1.33 355.71 1.33 355.71 -0.19 360.25 C-0.88 362.91 -1.56 365.57 -2.19 368.25 C-27.41 368.37 -52.64 368.45 -77.86 368.51 C-89.58 368.53 -101.29 368.57 -113 368.63 C-123.21 368.68 -133.41 368.71 -143.62 368.72 C-149.02 368.73 -154.43 368.74 -159.84 368.78 C-164.92 368.81 -170.01 368.82 -175.09 368.82 C-176.96 368.82 -178.83 368.83 -180.7 368.85 C-183.25 368.87 -185.79 368.86 -188.34 368.85 C-189.08 368.87 -189.83 368.88 -190.59 368.9 C-194.34 368.84 -195.89 368.54 -198.65 365.92 C-200.65 362.45 -200.7 360.04 -200.72 356.04 C-200.73 355.33 -200.74 354.62 -200.75 353.89 C-200.77 351.55 -200.76 349.21 -200.75 346.88 C-200.76 345.23 -200.77 343.58 -200.77 341.94 C-200.78 338.48 -200.78 335.02 -200.76 331.56 C-200.75 328.05 -200.76 324.54 -200.78 321.03 C-201.08 283.64 -196.03 253.01 -168.88 225.31 C-153.33 210.05 -130.88 197 -108.63 196.15 C-107.48 196.17 -107.48 196.17 -106.31 196.19 C-105.53 196.2 -104.75 196.21 -103.95 196.21 C-103.08 196.23 -103.08 196.23 -102.19 196.25 C-102.19 194.93 -102.19 193.61 -102.19 192.25 C-102.89 192.01 -103.6 191.77 -104.32 191.53 C-118.53 185.19 -127.89 170.39 -133.28 156.42 C-134.3 152.85 -134.6 149.57 -134.81 145.88 C-134.92 144.01 -134.92 144.01 -135.04 142.1 C-135.09 141.16 -135.14 140.22 -135.19 139.25 C-135.92 139.14 -136.65 139.03 -137.41 138.91 C-144.5 137.22 -150.02 132.15 -154.04 126.23 C-157.94 119.5 -157.82 111.83 -157.19 104.25 C-154.79 95.42 -150.02 88.92 -142.19 84.25 C-141.53 84.25 -140.87 84.25 -140.19 84.25 C-140.19 83.59 -140.19 82.93 -140.19 82.25 C-140.92 82 -141.65 81.74 -142.41 81.48 C-151.11 77.62 -157.98 68.42 -164.28 61.48 C-167.4 58.06 -170.53 55.11 -174.19 52.25 C-175.74 49.15 -175.47 46.67 -175.19 43.25 C-172.75 39.13 -169.43 35.76 -166.19 32.25 C-164.98 30.89 -164.98 30.89 -163.75 29.5 C-156.61 21.82 -149.63 18.05 -139.38 16.12 C-133.06 14.72 -129.24 11.44 -124.41 7.38 C-114.06 -1.19 -101.7 -4.02 -88.51 -4.16 C-87.61 -4.17 -86.72 -4.18 -85.8 -4.19 C-83.92 -4.21 -82.05 -4.22 -80.17 -4.23 C-77.33 -4.25 -74.49 -4.31 -71.64 -4.38 C-55.02 -4.56 -55.02 -4.56 -47.24 1.15 C-46.22 1.69 -46.22 1.69 -45.19 2.25 C-43.01 1.59 -43.01 1.59 -41.19 0.25 C-40.11 -0.37 -40.11 -0.37 -39 -1 C-37.5 -1.88 -36 -2.75 -34.5 -3.63 C-23.64 -8.89 -9.57 -6.63 0 0 Z " fill="#082C76" transform="translate(343.1875,95.75)"/>
<path d="M0 0 C12.03 10.25 20.81 23.93 22.18 39.87 C23.65 59.52 19.98 75.1 6.97 90.48 C-4.68 102.9 -19.34 110.29 -36.35 111.14 C-54.42 111.66 -69.05 107.27 -82.5 94.65 C-94.55 82.87 -101.81 69.36 -102.36 52.37 C-102.5 32.87 -97.63 18.54 -84.12 4.15 C-60.29 -19.4 -26.1 -19.76 0 0 Z " fill="#FDFEFE" transform="translate(457.81640625,433.1328125)"/>
<path d="M0 0 C0.46 0.96 0.92 1.93 1.39 2.92 C2.71 5.96 2.71 5.96 4.69 7.31 C7.21 8.17 7.21 8.17 10.81 8.12 C14.63 8.53 16.37 9.86 19 12.62 C21.31 15.57 21.98 16.9 22.62 20.69 C21.72 25.49 19.71 28.84 16 32 C13.49 32.89 10.96 33.51 8.38 34.16 C5.75 35.09 4.73 35.85 3 38 C2.56 40.02 2.56 40.02 2.63 42.25 C2.61 43.08 2.6 43.91 2.59 44.77 C2.58 45.65 2.57 46.53 2.56 47.44 C2.13 61.6 -1.81 73.48 -11.5 84.12 C-20.77 92.83 -31.81 97.15 -44 100 C-44.97 100.26 -44.97 100.26 -45.95 100.53 C-60.41 103.85 -77.92 100.25 -90.47 92.76 C-101.35 85.18 -109.86 76.11 -113 63 C-113.56 59.11 -113.95 55.2 -114.23 51.28 C-114.59 46.86 -114.95 43.46 -118 40 C-120.77 38.97 -120.77 38.97 -123.88 38.56 C-130.55 37.16 -130.55 37.16 -133.19 33.94 C-135.89 29.56 -136.95 26.15 -136 21 C-134.08 17.22 -131.72 14.63 -127.7 13.16 C-125.47 12.66 -123.26 12.32 -121 12 C-120.01 11.67 -119.02 11.34 -118 11 C-117.2 9.13 -117.2 9.13 -116.81 6.94 C-116.65 6.2 -116.5 5.47 -116.33 4.71 C-116.17 3.87 -116.17 3.87 -116 3 C-100.95 2.36 -85.91 1.73 -70.86 1.12 C-68.37 1.02 -65.88 0.91 -63.39 0.81 C-42.26 -0.07 -21.15 -0.11 0 0 Z " fill="#FBDEBD" transform="translate(339,181)"/>
<path d="M0 0 C3.6 6 3.14 13.16 3.06 19.94 C3.04 22.6 3.02 25.26 3 28 C8.61 28 14.22 28 20 28 C20 23.38 20 18.76 20 14 C20.33 14 20.66 14 21 14 C21 18.95 21 23.9 21 29 C23.31 29 25.62 29 28 29 C49.01 33.35 67.56 46.57 79.38 64.35 C91.59 84.25 93.91 105.79 89.6 128.6 C88.59 132.66 86.87 136.27 85 140 C84.63 140.81 84.26 141.63 83.88 142.46 C80.97 148.66 77.38 153.76 73 159 C72.5 159.66 72 160.31 71.49 160.99 C62.47 172.32 47.71 181.38 33.75 184.81 C32.9 185.02 32.05 185.24 31.17 185.45 C16.58 188.75 -0.87 188.84 -14.94 183.31 C-15.63 183.04 -16.33 182.77 -17.04 182.49 C-37.43 174.35 -52.32 158.93 -61.6 139.3 C-68.51 123.03 -67 109.88 -67 91 C-129.37 91 -191.74 91 -256 91 C-256 90.67 -256 90.34 -256 90 C-192.97 90 -129.94 90 -65 90 C-64.67 87.36 -64.34 84.72 -64 82 C-62.68 79.03 -61.36 76.06 -60 73 C-69.24 73 -78.48 73 -88 73 C-81.57 51.93 -68.15 33.67 -50 21 C-49.34 21 -48.68 21 -48 21 C-48.06 20.26 -48.12 19.53 -48.18 18.77 C-48.54 10.82 -48.54 10.82 -45.88 6.81 C-42.48 4.67 -40.94 4.34 -37 5 C-34.12 6.38 -34.12 6.38 -32 8 C-32 8.66 -32 9.32 -32 10 C-30.55 9.49 -30.55 9.49 -29.07 8.98 C-19.48 5.67 -10.27 2.55 0 3 C0 2.01 0 1.02 0 0 Z M-35 66 C-48.41 81.56 -51.16 97.19 -50.24 117.23 C-48.87 133.2 -39.24 146.29 -27.62 156.64 C-12.12 169.65 3.87 170.92 23.16 169.82 C39.43 167.81 52.82 156.64 62.94 144.5 C66.45 139.71 68.88 134.53 71 129 C71.26 128.34 71.52 127.69 71.79 127.01 C73.96 121.19 74.47 115.99 74.38 109.81 C74.36 108.43 74.36 108.43 74.34 107.03 C73.93 89.4 68.28 75.26 55.82 62.66 C43.19 50.76 27.36 44.43 10 44.65 C-8.03 45.28 -23 52.86 -35 66 Z " fill="#6BCCD1" transform="translate(406,374)"/>
<path d="M0 0 C4.03 2.01 6.69 4.15 9 8 C9.52 11.34 9.52 11.34 9.73 15.3 C9.79 16.37 9.79 16.37 9.85 17.46 C9.93 18.98 10.01 20.49 10.08 22 C10.19 24.27 10.31 26.53 10.44 28.79 C10.51 30.27 10.59 31.76 10.67 33.24 C10.72 34.22 10.72 34.22 10.77 35.22 C11.1 42.48 11.03 49.74 11 57 C-1.82 57.39 -14.65 57.79 -27.47 58.17 C-33.43 58.35 -39.38 58.53 -45.34 58.72 C-51.1 58.9 -56.87 59.07 -62.63 59.24 C-64.81 59.31 -67 59.38 -69.18 59.44 C-79.83 59.78 -90.49 60.07 -101.14 60.17 C-101.96 60.18 -102.77 60.2 -103.61 60.21 C-110.04 60.24 -114.81 58.96 -120 55 C-120.7 54.47 -121.4 53.94 -122.12 53.39 C-126.34 49.91 -129.93 45.96 -133.46 41.8 C-135.21 39.76 -137.06 37.86 -139 36 C-137.91 31.5 -135.44 28.68 -132 25.75 C-127.15 22.92 -121.83 21.79 -116.44 20.34 C-109.19 18.3 -104.43 15.24 -99 10 C-91.76 4.19 -85.5 2.69 -76.44 2.38 C-75.53 2.34 -74.62 2.31 -73.68 2.27 C-71.77 2.2 -69.85 2.14 -67.94 2.09 C-65.97 2.03 -64.01 1.96 -62.05 1.88 C-59.2 1.77 -56.35 1.69 -53.5 1.62 C-52.62 1.59 -51.75 1.55 -50.84 1.51 C-46.41 1.45 -44.62 1.51 -41.03 4.34 C-37.05 9.56 -37.05 9.56 -36.62 13.44 C-36.23 16.97 -36.23 16.97 -34.44 19.5 C-31.29 21.44 -29.4 21.28 -25.83 20.59 C-23.87 20.08 -23.87 20.08 -22.12 18.5 C-21.05 16.12 -20.57 14.11 -20.06 11.56 C-19.24 7.45 -18.08 4.99 -15 2 C-10.31 -0.89 -5.34 -0.63 0 0 Z " fill="#D26A5C" transform="translate(328,107)"/>
<path d="M0 0 C3.68 6.14 3.14 13.51 3.06 20.44 C3.06 21.26 3.05 22.09 3.05 22.94 C3.04 24.96 3.02 26.98 3 29 C2.06 29.16 1.11 29.32 0.14 29.48 C-21.66 33.44 -39.36 44.33 -53 62 C-53.69 63.4 -53.69 63.4 -54.4 64.83 C-55.99 68.05 -57.46 70.45 -60 73 C-64.87 74.36 -69.43 74.05 -74.44 73.69 C-75.74 73.64 -77.05 73.59 -78.39 73.54 C-81.6 73.41 -84.8 73.23 -88 73 C-81.67 51.94 -68.09 33.63 -50 21 C-49.34 21 -48.68 21 -48 21 C-48.06 20.26 -48.12 19.53 -48.18 18.77 C-48.54 10.82 -48.54 10.82 -45.88 6.81 C-42.48 4.67 -40.94 4.34 -37 5 C-34.12 6.38 -34.12 6.38 -32 8 C-32 8.66 -32 9.32 -32 10 C-30.55 9.49 -30.55 9.49 -29.07 8.98 C-19.48 5.67 -10.27 2.55 0 3 C0 2.01 0 1.02 0 0 Z " fill="#6763F4" transform="translate(406,374)"/>
<path d="M0 0 C2.94 1.25 2.94 1.25 5 4 C6.56 12.94 4.5 21.8 -0.54 29.29 C-4.36 33.96 -8.64 37.27 -14 40 C-14.63 40.32 -15.25 40.64 -15.9 40.97 C-24 44.54 -32.56 43.7 -40.78 40.91 C-46.19 38.69 -50.06 35.25 -54 31 C-54.68 30.28 -55.36 29.56 -56.06 28.81 C-60.36 22.58 -62.86 15.85 -62.51 8.21 C-61.93 5.71 -61.27 4.59 -59.44 2.81 C-56 1 -56 1 -52.38 0.94 C-48.55 2.14 -47.2 2.66 -45 6 C-44.44 8.5 -44.04 11 -43.62 13.52 C-42.38 18.48 -39.19 21.21 -35 24 C-32.2 24.36 -32.2 24.36 -29.12 24.31 C-28.1 24.33 -27.07 24.35 -26.01 24.36 C-22.63 23.96 -20.81 22.85 -18 21 C-17.34 21 -16.68 21 -16 21 C-14.45 17.47 -13.68 14.32 -13.19 10.5 C-12.53 6.75 -12.02 5.03 -9.81 1.81 C-6.18 -0.53 -4.25 -0.68 0 0 Z " fill="#0A2D76" transform="translate(311,224)"/>
<path d="M0 0 C3 2.06 3 2.06 5 5 C5.65 8.53 5.76 10.89 3.69 13.93 C1.75 16.08 -0.27 18.09 -2.37 20.09 C-3.12 20.83 -3.87 21.57 -4.64 22.34 C-7.04 24.7 -9.45 27.04 -11.88 29.38 C-13.5 30.97 -15.12 32.57 -16.74 34.17 C-19.7 37.08 -22.67 39.99 -25.65 42.88 C-26.55 43.75 -26.55 43.75 -27.47 44.64 C-29.77 46.69 -31.06 47.01 -34.19 47.44 C-41.46 46.6 -45.48 40.63 -49.96 35.27 C-51.99 33.01 -54.18 30.98 -56.41 28.92 C-63.74 22.09 -63.74 22.09 -63.94 17.56 C-62.9 13.63 -62.49 12.1 -59 10 C-54.85 9.24 -52.56 9 -48.98 11.29 C-46.88 13.11 -44.94 15.01 -43 17 C-42.25 17.74 -41.49 18.48 -40.72 19.25 C-38.79 21.15 -36.89 23.06 -35 25 C-31.05 23.42 -28.74 20.85 -25.86 17.77 C-24.86 16.73 -23.86 15.69 -22.86 14.65 C-21.3 13.01 -19.75 11.37 -18.21 9.72 C-16.72 8.11 -15.2 6.54 -13.67 4.96 C-12.78 4.01 -11.88 3.06 -10.96 2.08 C-6.9 -0.77 -4.88 -0.56 0 0 Z " fill="#69CCD1" transform="translate(445,458)"/>
<path d="M0 0 C0.17 4.82 0.3 9.64 0.38 14.46 C0.42 16.1 0.47 17.73 0.53 19.37 C1.08 34.7 1.08 34.7 -3.21 40.13 C-3.86 40.78 -4.51 41.43 -5.18 42.1 C-7.14 44.15 -7.93 45.95 -9.04 48.53 C-10.24 50.5 -10.24 50.5 -12 52 C-16.8 53 -21.44 52.75 -26.31 52.5 C-27.63 52.46 -28.94 52.43 -30.29 52.39 C-33.53 52.3 -36.76 52.16 -40 52 C-35.8 38.03 -17.68 0 0 0 Z " fill="#6864F6" transform="translate(358,395)"/>
<path d="M0 0 C4.63 2.26 4.63 2.26 6 5 C6.4 9.31 6.53 13.63 6.62 17.96 C6.67 19.39 6.73 20.83 6.81 22.26 C7.47 34.14 7.47 34.14 3.97 38.57 C1.41 40.61 -1.22 42.27 -4 44 C-6.39 45.94 -8.7 47.96 -11 50 C-11.13 43.68 -11.21 37.37 -11.27 31.05 C-11.3 28.9 -11.33 26.75 -11.38 24.6 C-11.44 21.51 -11.47 18.42 -11.49 15.33 C-11.51 14.37 -11.54 13.42 -11.57 12.43 C-11.57 7.79 -11.52 5.69 -8.66 1.89 C-5.4 -0.43 -3.92 -0.65 0 0 Z " fill="#072C77" transform="translate(369,379)"/>
<path d="M0 0 C0.5 1.49 0.5 1.49 1 3 C-7.58 11.58 -16.16 20.16 -25 29 C-34.58 20.79 -43.45 12.13 -51 2 C-50.34 2.14 -49.67 2.28 -48.99 2.43 C-42.16 3.78 -35.64 4.35 -28.69 4.31 C-27.19 4.31 -27.19 4.31 -25.67 4.31 C-16.7 4.19 -8.53 2.84 0 0 Z " fill="#F6DBBC" transform="translate(310,294)"/>
</svg>
