<svg width="48" height="48" viewBox="0 0 48 48" fill="none" xmlns="http://www.w3.org/2000/svg">
  <defs>
    <linearGradient id="gsCoralGrad" x1="4" y1="4" x2="44" y2="44" gradientUnits="userSpaceOnUse">
      <stop offset="0%" stopColor="#e5896e" />
      <stop offset="100%" stopColor="#cc785c" />
    </linearGradient>
  </defs>
  <rect width="48" height="48" rx="12" fill="url(#gsCoralGrad)" />
  <path d="M14 18L11 15M24 13V9M34 18L37 15" stroke="#ffffff" stroke-width="2.5" stroke-linecap="round" stroke-opacity="0.85" />
  <path d="M15 22C15 17.0294 19.0294 13 24 13C28.9706 13 33 17.0294 33 22" stroke="#ffffff" stroke-width="2.5" stroke-linecap="round" stroke-opacity="0.8" />
  <path d="M9 25L24 14L39 25" stroke="#ffffff" stroke-width="3.2" stroke-linecap="round" stroke-linejoin="round" />
  <path d="M19 28.5C16.5 26 16.5 22.5 19 20C21.5 17.5 24 20 24 20C24 20 26.5 17.5 29 20C31.5 22.5 31.5 26 29 28.5L24 33.5L19 28.5Z" fill="#181715" fill-opacity="0.9" />
  <path d="M21 24.5L24 27.5L27 24.5M24 27.5V31" stroke="#ffffff" stroke-width="1.8" stroke-linecap="round" stroke-linejoin="round" />
</svg>
